<?xml version="1.0" encoding="utf-8"?>
<!-- Svg Vector Icons : http://www.onlinewebfonts.com/icon -->
<!DOCTYPE svg PUBLIC "-//W3C//DTD SVG 1.1//EN" "http://www.w3.org/Graphics/SVG/1.1/DTD/svg11.dtd">
<svg version="1.1" xmlns="http://www.w3.org/2000/svg" xmlns:xlink="http://www.w3.org/1999/xlink" x="0px" y="0px" viewBox="0 0 1000 1000" enable-background="new 0 0 1000 1000" xml:space="preserve">
<metadata> Svg Vector Icons : http://www.onlinewebfonts.com/icon </metadata>
<g><path d="M35.3,283.5L500,684.8l464.7-401.3c6.4-5.5,16-4.8,21.6,1.6c5.5,6.4,4.9,16.1-1.6,21.6l-474.8,410c-0.3,0.3-0.7,0.3-1,0.6c-1.1,0.8-2.3,1.5-3.5,2c-0.8,0.3-1.5,0.5-2.3,0.6c-1,0.2-2,0.4-3.1,0.4c-1.1,0-2.1-0.2-3.1-0.4c-0.8-0.2-1.5-0.3-2.3-0.6c-1.3-0.5-2.4-1.2-3.6-2c-0.3-0.2-0.7-0.3-1-0.6l-474.8-410c-3.5-3-5.3-7.3-5.3-11.6c0-3.6,1.2-7.1,3.7-10C19.2,278.6,28.9,278,35.3,283.5z"/></g>
</svg>